<?xml version="1.0" encoding="UTF-8" standalone="no"?>
<!-- Generator: Adobe Illustrator 13.0.2, SVG Export Plug-In . SVG Version: 6.00 Build 14948)  -->

<svg
   version="1.2"
   id="Layer_1"
   x="0px"
   y="0px"
   width="172.238px"
   height="180.994px"
   viewBox="0 0 172.238 180.994"
   xml:space="preserve"
   sodipodi:docname="oshw-logo-outline.svg"
   inkscape:version="1.3.2 (091e20ef0f, 2023-11-25)"
   inkscape:export-filename="oshw-logo-outline.png"
   inkscape:export-xdpi="142.68628"
   inkscape:export-ydpi="142.68628"
   xmlns:inkscape="http://www.inkscape.org/namespaces/inkscape"
   xmlns:sodipodi="http://sodipodi.sourceforge.net/DTD/sodipodi-0.dtd"
   xmlns="http://www.w3.org/2000/svg"
   xmlns:svg="http://www.w3.org/2000/svg"><defs
   id="defs17" /><sodipodi:namedview
   id="namedview17"
   pagecolor="#505050"
   bordercolor="#ffffff"
   borderopacity="1"
   inkscape:showpageshadow="0"
   inkscape:pageopacity="0"
   inkscape:pagecheckerboard="1"
   inkscape:deskcolor="#505050"
   inkscape:zoom="6.3055699"
   inkscape:cx="86.352226"
   inkscape:cy="101.10109"
   inkscape:window-width="1920"
   inkscape:window-height="1004"
   inkscape:window-x="0"
   inkscape:window-y="0"
   inkscape:window-maximized="1"
   inkscape:current-layer="Layer_1" />

















<g
   id="g17"
   transform="translate(2.1556293e-6,29.400947)"
   style="fill:#000000;stroke:none">
	<path
   fill="#333333"
   d="m 152.336,57.604 -16.439,-3.057 c -0.4,-0.075 -0.838,-0.451 -0.973,-0.837 l -5.039,-11.756 c -0.188,-0.363 -0.152,-0.933 0.08,-1.271 l 9.578,-13.96 c 0.229,-0.336 0.184,-0.847 -0.105,-1.136 L 127.475,13.624 c -0.289,-0.289 -0.799,-0.336 -1.135,-0.105 l -14.205,9.748 c -0.336,0.231 -0.912,0.272 -1.277,0.092 L 99.462,18.694 c -0.387,-0.128 -0.764,-0.561 -0.84,-0.962 L 95.457,0.729 C 95.383,0.328 94.988,0 94.58,0 H 77.66 C 77.253,0 76.858,0.328 76.784,0.729 L 73.62,17.732 c -0.076,0.401 -0.452,0.834 -0.84,0.962 l -11.397,4.665 c -0.366,0.18 -0.942,0.139 -1.277,-0.092 L 45.902,13.519 c -0.337,-0.231 -0.848,-0.184 -1.136,0.105 L 32.802,25.587 c -0.288,0.289 -0.336,0.8 -0.105,1.136 l 9.579,13.96 c 0.23,0.338 0.266,0.908 0.079,1.271 l -5.04,11.756 c -0.134,0.386 -0.571,0.762 -0.973,0.837 l -16.438,3.057 c -0.402,0.076 -0.729,0.47 -0.729,0.878 l 10e-4,16.919 c 0,0.408 0.328,0.805 0.729,0.878 l 16.035,2.984 c 0.401,0.073 0.83,0.454 0.952,0.843 l 5.006,12.505 c 0.179,0.367 0.137,0.941 -0.095,1.277 l -9.108,13.273 c -0.23,0.336 -0.183,0.848 0.105,1.137 l 11.965,11.963 c 0.288,0.287 0.799,0.334 1.136,0.105 l 13.038,-8.949 c 0.336,-0.23 0.899,-0.248 1.25,-0.043 l 5.75,3.07 c 0.364,0.186 0.789,0.029 0.945,-0.348 L 78.74,85.449 c 0.157,-0.377 0,-0.858 -0.348,-1.071 l -1.439,-0.881 c -0.266,-0.162 -0.627,-0.441 -0.91,-0.697 -5.191,-3.324 -8.635,-9.139 -8.635,-15.761 0,-10.334 8.378,-18.711 18.711,-18.711 10.333,0 18.71,8.377 18.71,18.711 0,6.622 -3.443,12.437 -8.635,15.761 -0.281,0.256 -0.643,0.535 -0.908,0.697 l -1.439,0.881 c -0.346,0.213 -0.504,0.694 -0.348,1.071 l 11.855,28.648 c 0.156,0.377 0.58,0.533 0.945,0.348 l 5.75,-3.07 c 0.352,-0.205 0.914,-0.188 1.25,0.043 l 13.039,8.949 c 0.336,0.229 0.848,0.182 1.135,-0.105 l 11.965,-11.963 c 0.289,-0.289 0.336,-0.801 0.105,-1.137 l -9.109,-13.273 c -0.23,-0.336 -0.273,-0.91 -0.094,-1.277 l 5.006,-12.505 c 0.123,-0.389 0.549,-0.77 0.951,-0.843 l 16.035,-2.984 c 0.4,-0.073 0.729,-0.47 0.729,-0.878 l 0.002,-16.919 c 0.001,-0.409 -0.327,-0.803 -0.727,-0.879 z m -2.874,15.947 -13.822,2.572 c -1.047,0.207 -1.727,0.645 -2.313,1.151 -0.531,0.487 -1.004,1.053 -1.337,1.934 l -4.971,12.415 c -0.317,0.736 -0.384,1.356 -0.39,1.924 0.021,0.896 0.168,1.758 0.84,2.781 l 7.834,11.416 -8.782,8.781 -11.184,-7.676 c -0.979,-0.648 -1.855,-0.805 -2.705,-0.818 -0.717,0.008 -1.453,0.127 -2.276,0.568 h -10e-4 l -2.903,1.551 -9.744,-23.547 c 0.234,-0.169 0.45,-0.343 0.668,-0.528 C 104.423,82.1 108.43,75.227 108.43,67.438 108.428,55.114 98.443,45.128 86.12,45.126 73.798,45.128 63.812,55.114 63.808,67.438 c 0.002,7.789 4.008,14.661 10.056,18.636 0.216,0.184 0.431,0.357 0.668,0.528 l -9.743,23.548 -2.903,-1.551 c -0.835,-0.447 -1.583,-0.561 -2.281,-0.568 -0.86,0.014 -1.729,0.172 -2.708,0.822 l -11.177,7.672 -8.784,-8.781 7.835,-11.42 c 0.666,-1.021 0.817,-1.878 0.838,-2.777 -0.008,-0.582 -0.082,-1.203 -0.388,-1.92 L 40.242,79.185 C 39.907,78.309 39.433,77.752 38.908,77.27 38.319,76.766 37.645,76.331 36.588,76.122 L 22.777,73.552 22.776,61.133 37,58.484 c 1.031,-0.207 1.692,-0.624 2.277,-1.111 0.521,-0.463 0.994,-0.997 1.346,-1.846 l 0.002,10e-4 5.01,-11.69 c 0.338,-0.739 0.433,-1.396 0.439,-2.036 -0.019,-0.875 -0.164,-1.731 -0.819,-2.743 l -8.316,-12.117 8.782,-8.782 12.348,8.475 c 1.031,0.672 1.878,0.813 2.774,0.833 0.586,-0.005 1.206,-0.08 1.926,-0.389 l 11.354,-4.647 c 0.879,-0.346 1.433,-0.826 1.907,-1.352 0.494,-0.586 0.915,-1.248 1.126,-2.276 L 79.91,4 h 12.418 l 2.752,14.79 c 0.216,1.047 0.637,1.707 1.13,2.291 0.478,0.53 1.032,1.01 1.919,1.357 l 11.356,4.649 c 0.712,0.303 1.318,0.377 1.908,0.385 0.888,-0.023 1.744,-0.162 2.774,-0.833 l 12.352,-8.478 8.781,8.783 -8.305,12.103 c -0.668,0.997 -0.814,1.876 -0.834,2.757 0.006,0.625 0.098,1.263 0.413,1.97 l 5.038,11.756 h 0.001 c 0.354,0.85 0.827,1.383 1.349,1.846 0.583,0.485 1.238,0.902 2.272,1.111 l 14.228,2.646 z"
   id="path17"
   style="fill:#000000;stroke:none" />
</g>
<path
   style="fill:#000000;fill-opacity:1;stroke:#000000;stroke-width:2.39758;stroke-linecap:square;stroke-opacity:1"
   d="m 41.459268,141.52966 c -2.304847,-2.3096 -4.190631,-4.28798 -4.190631,-4.3964 0,-0.10842 1.776839,-2.79414 3.948531,-5.96826 4.200838,-6.1399 4.79504,-7.33971 4.443637,-8.97254 -0.300064,-1.39428 -5.127135,-13.47742 -5.85988,-14.66848 -0.321966,-0.52334 -0.987761,-1.18781 -1.479545,-1.47658 -0.670416,-0.39367 -13.882716,-3.12252 -15.118319,-3.12252 -0.114135,0 -0.207519,-2.76813 -0.207519,-6.151391 v -6.151384 l 3.885454,-0.705376 c 8.328436,-1.511972 11.301291,-2.177038 12.115196,-2.710328 1.029934,-0.674838 1.47621,-1.533314 4.65655,-8.957528 1.862188,-4.347106 2.496933,-6.185294 2.496933,-7.230988 0,-1.457124 0.295102,-0.974795 -8.720895,-14.25381 -0.246843,-0.363557 0.619955,-1.400448 3.977403,-4.757895 l 4.29303,-4.293031 2.683375,1.854994 c 10.134955,7.006206 10.731247,7.365648 12.2191,7.365648 1.051226,0 3.086959,-0.677379 7.782348,-2.58953 6.655157,-2.710248 7.621452,-3.251312 8.361135,-4.681701 0.247904,-0.479393 1.038063,-4.070747 1.755907,-7.980787 0.717845,-3.910041 1.378166,-7.358944 1.467382,-7.664229 0.14708,-0.503286 0.720395,-0.555065 6.145881,-0.555065 5.424093,0 5.999182,0.05191 6.149538,0.555065 0.09123,0.305285 0.756528,3.763813 1.478445,7.685617 1.330563,7.228285 1.643798,8.281201 2.765615,9.29643 0.34428,0.31157 3.556431,1.774225 7.138111,3.250345 4.84128,1.995236 6.87586,2.683855 7.92967,2.683855 1.56547,0 2.18366,-0.361082 10.52443,-6.147215 l 4.42641,-3.070675 4.21674,4.208063 c 2.31921,2.314435 4.21674,4.318969 4.21674,4.454521 0,0.135551 -1.31069,2.135768 -2.91265,4.444925 -5.45949,7.869622 -5.96838,8.742546 -5.96838,10.237786 0,0.991615 0.67476,2.933996 2.49693,7.187677 3.18034,7.424214 3.62662,8.28269 4.65655,8.957528 0.81391,0.53329 3.78676,1.198356 12.1152,2.710328 l 3.88545,0.705376 v 6.151384 c 0,3.383261 -0.0876,6.151391 -0.19471,6.151391 -0.10709,0 -3.35422,0.58315 -7.21584,1.29588 -6.95812,1.28427 -7.83543,1.56163 -9.04455,2.85946 -0.64425,0.69152 -5.9061,13.64086 -6.24678,15.37323 -0.28547,1.45164 0.3952,2.7623 4.61618,8.88855 2.09693,3.04345 3.8126,5.63978 3.8126,5.76963 0,0.12984 -1.89703,2.12921 -4.21563,4.44303 l -4.21563,4.20696 -5.81504,-4.00695 c -3.19827,-2.20382 -6.26114,-4.13653 -6.80637,-4.29491 -1.25652,-0.36499 -2.44181,-0.11101 -4.64175,0.9946 l -1.74735,0.87816 -4.81606,-11.62234 -4.816064,-11.62234 0.854172,-0.60349 c 0.469791,-0.33192 2.016952,-1.77911 3.438142,-3.21598 2.849,-2.88045 4.71551,-6.13343 5.72513,-9.97785 0.72868,-2.774688 0.70873,-8.317819 -0.04,-11.101301 -1.66701,-6.197562 -6.07564,-11.615283 -11.718462,-14.40068 -3.587475,-1.770844 -5.803668,-2.24722 -10.347997,-2.224326 -3.466858,0.01747 -4.2834,0.129495 -6.502188,0.892097 -6.343125,2.180142 -10.725923,6.0898 -13.466589,12.012814 -1.624602,3.511023 -2.051719,5.48052 -2.0449,9.429333 0.01071,6.202063 1.982695,11.038583 6.266739,15.369913 1.421185,1.43687 2.970586,2.88406 3.443115,3.21598 l 0.859145,0.60349 -4.809002,11.62842 -4.809,11.62841 -1.759381,-0.88423 c -3.705758,-1.86245 -4.141608,-1.74228 -11.116187,3.06478 -2.52951,1.7434 -4.961338,3.40245 -5.404062,3.68677 l -0.804953,0.51695 z"
   id="path18" /></svg>
